<svg width="416" height="96" viewBox="0 0 416 96" fill="none" xmlns="http://www.w3.org/2000/svg">
<path d="M47.488 21.12V93.056H25.6V21.12H0V2.43201H73.088V21.12H47.488Z" fill="#777777"/>
<path d="M167.268 47.36C167.268 54.528 166.031 61.0987 163.556 67.072C161.081 72.96 157.625 78.0373 153.188 82.304C148.836 86.4853 143.631 89.728 137.572 92.032C131.513 94.336 124.943 95.488 117.86 95.488C110.777 95.488 104.207 94.336 98.148 92.032C92.1747 89.728 86.9693 86.4853 82.532 82.304C78.18 78.0373 74.7667 72.96 72.292 67.072C69.8173 61.0987 68.58 54.528 68.58 47.36C68.58 40.1067 69.8173 33.5787 72.292 27.776C74.7667 21.888 78.18 16.896 82.532 12.8C86.9693 8.704 92.1747 5.54667 98.148 3.328C104.207 1.10933 110.777 0 117.86 0C124.943 0 131.513 1.10933 137.572 3.328C143.631 5.54667 148.836 8.704 153.188 12.8C157.625 16.896 161.081 21.888 163.556 27.776C166.031 33.5787 167.268 40.1067 167.268 47.36ZM143.844 47.36C143.844 43.4347 143.204 39.7653 141.924 36.352C140.644 32.9387 138.852 30.0373 136.548 27.648C134.329 25.1733 131.599 23.2533 128.356 21.888C125.199 20.4373 121.7 19.712 117.86 19.712C114.02 19.712 110.521 20.4373 107.364 21.888C104.207 23.2533 101.476 25.1733 99.172 27.648C96.868 30.0373 95.076 32.9387 93.796 36.352C92.6013 39.7653 92.004 43.4347 92.004 47.36C92.004 51.456 92.644 55.2533 93.924 58.752C95.204 62.1653 96.9533 65.1093 99.172 67.584C101.476 70.0587 104.207 72.0213 107.364 73.472C110.521 74.8373 114.02 75.52 117.86 75.52C121.7 75.52 125.199 74.8373 128.356 73.472C131.513 72.0213 134.244 70.0587 136.548 67.584C138.852 65.1093 140.644 62.1653 141.924 58.752C143.204 55.2533 143.844 51.456 143.844 47.36Z" fill="#777777"/>
<path d="M173.999 93.056V2.43201H196.015V93.056H173.999Z" fill="#777777"/>
<path d="M207.069 93.056V2.43201H229.085V93.056H207.069Z" fill="#777777"/>
<path d="M310.795 66.688C310.795 71.6373 309.814 75.8187 307.851 79.232C305.888 82.56 303.286 85.248 300.043 87.296C296.8 89.344 293.088 90.8373 288.907 91.776C284.811 92.6293 280.587 93.056 276.235 93.056H240.139V2.43201H276.235C279.734 2.43201 283.318 2.816 286.987 3.584C290.656 4.26667 293.984 5.504 296.971 7.29601C299.958 9.00267 302.39 11.3493 304.267 14.336C306.144 17.3227 307.083 21.12 307.083 25.728C307.083 30.7627 305.718 34.944 302.987 38.272C300.256 41.5147 296.672 43.8613 292.235 45.312V45.568C294.795 45.9947 297.184 46.8053 299.403 48C301.707 49.1093 303.67 50.56 305.291 52.352C306.998 54.144 308.32 56.2347 309.259 58.624C310.283 61.0133 310.795 63.7013 310.795 66.688ZM285.963 28.672C285.963 25.6 284.768 23.3813 282.379 22.016C280.075 20.5653 276.619 19.84 272.011 19.84H261.259V38.528H273.035C277.131 38.528 280.288 37.7173 282.507 36.096C284.811 34.3893 285.963 31.9147 285.963 28.672ZM288.907 64.64C288.907 60.8853 287.499 58.2827 284.683 56.832C281.867 55.3813 278.112 54.656 273.419 54.656H261.259V75.392H273.547C275.254 75.392 277.003 75.264 278.795 75.008C280.672 74.6667 282.336 74.112 283.787 73.344C285.323 72.576 286.56 71.5093 287.499 70.144C288.438 68.6933 288.907 66.8587 288.907 64.64Z" fill="#777777"/>
<path d="M317.584 93.056V2.43201H339.6V93.056H317.584Z" fill="#777777"/>
<path d="M389.438 21.12V93.056H367.55V21.12H341.95V2.43201H415.038V21.12H389.438Z" fill="#777777"/>
</svg>
